<svg xmlns="http://www.w3.org/2000/svg" height="800" width="1200" version="1.0" viewBox="-39.276555 -10.5547 340.39681 63.3282"><defs><clipPath id="a"><path d="M484.702 230.732h209.475v33.775H484.702z"/></clipPath><clipPath id="b"><path d="M484.702 230.732h209.475v33.775H484.702z"/></clipPath><clipPath id="c"><path d="M484.702 230.732h209.475v33.775H484.702z"/></clipPath><clipPath id="d"><path d="M484.702 230.732h209.475v33.775H484.702z"/></clipPath></defs><g clip-path="url(#a)" transform="matrix(1.25 0 0 -1.25 -605.8775 330.6338)" fill="#8d7d7d"><path d="M564.722 254.433c-.002.904-.002 9.231-.002 9.231 0 .643-.584.843-.228.843h2.004c.442 0-.178-.136-.185-.813-.005-.492.007-9.241.007-9.241 0-.991.007-1.098 1.704-1.191.724-.039 2.724-.142 4.428 1.94.523.639.363.171.363.171s-.271-1.897-.385-2.26c-.085-.273-.164-.218-.413-.223-.264-.006-7.515.002-7.515.002-.4 0-.186.114.1.541.152.229.122.993.122 1m10.25 8.562c.123-.292 4.015-10.004 4.015-10.004.059-.099.115-.099.115-.099h.885c.086 0 .148.078.177.114 0 0 3.26 8.606 3.459 9.119.2.513.887 1.726 1.312 2.132.328.314-.179.25-.179.25h-2.238c-.143 0-.395.094-.008-.471.699-1.02.219-2.139.219-2.139l-2.671-7.396s-3.209 8.366-3.323 8.651c-.114.285-.096.767.085.984.364.435.236.371-.049.371h-2.603c-.556 0 .328-.2.804-1.512m15.061-.207c.014-1.219-.777-7.394-1.045-8.25-.242-.771-.562-1.33-.673-1.454-.129-.142-.143-.192.042-.192h1.668c.329 0-.014.32-.014.32s-.285.428-.185 1.326c.038.342.959 8.26.959 8.26s3.587-9.544 3.704-9.828c.135-.328.292-.364.442-.007.05.117 3.85 10.046 3.85 10.046s.856-7.786.913-8.413c.057-.628.104-1.088.057-1.262-.1-.371-.4-.442-.107-.442h2.211c.313 0 .249.05.121.249-.099.154-.385.435-.699 1.661-.259 1.014-.78 8.123-.813 8.578-.079 1.077.635 1.127.278 1.127h-2.06s-.257-.022-.357-.385c-.048-.175-3.101-8.786-3.101-8.786l-3.331 9.171h-2.096c-.755 0 .285-.136.236-1.719m26.813 1.558c.131.132.131.161-.168.161h-1.882c-.428 0-.207-.165-.207-.165s.292-.342.306-.848v-4.364h-5.418s-.003 3.822 0 4.05c.006.749.218.973.306 1.098.185.264.1.229-.185.229h-1.79c-.327 0-.406-.022-.172-.195 0 0 .236-.162.215-1.183 0 0 .008-8.497 0-8.897-.015-.692-.056-1.01-.214-1.198-.15-.178.079-.142.079-.142h1.925c.171 0 .064.106.064.106s-.207.043-.228 1.234v4.414h5.418s.032-4.191.029-4.421c-.007-.713-.007-1.009-.171-1.162-.108-.1-.349-.171.121-.171h1.882c.25 0 .328 0 .136.156-.111.091-.285.257-.285 1.177v9.184c0 .748.239.937.239.937"/></g><path d="M50.2925 41.5987c.085 0 .1537-.0713.1537-.1562m0 0V28.7287a.1526.1526 0 00-.1537-.1525l-.93-.004c-.085 0-.1488.0825-.1488.1675l.004 12.7088c0 .0838.0675.1512.1525.1512l.9225-.001c.085 0 .1538-.0713.1538-.1562m8.826 0l-.001-12.7138a.1515.1515 0 00-.1525-.1525l-.93-.004c-.085 0-.1488.0825-.1488.1675l.004 12.7088a.15.15 0 00.1513.1512l.9237-.001c.085 0 .1538-.0713.1538-.1562M5.7375 35.8762c-.0838 0-.1788-.0137-.2225-.0987l-4.2863-5.3388.01 11.0137c0 .0838.007.15-.155.15h-.92c-.085 0-.1537-.0387-.1537-.1237L.007 28.7374c0-.0838.145-.155.1525-.155l1.08.001 4.5075 5.53" fill="#224a3d"/><path d="M5.7575 35.8762c.085 0 .18-.0137.2237-.0987l4.285-5.3388-.009 11.0137c0 .0838-.008.15.155.15h.9188c.085 0 .155-.0387.155-.1237l.001-12.7413c0-.0838-.145-.155-.1525-.155l-1.08.001-4.5075 5.53m38.483-5.3859c0-.085-.0687-.15-.1538-.15l-9.61-.005c-.085 0-.14.0787-.14.1637v.7663c0 .11.065.1537.15.1537h9.6a.1537.1537 0 00.1538-.1537v-.775" fill="#224a3d"/><path d="M38.5412 41.4462c0 .085.0775.1538.1363.1538h.92c.0862 0 .165-.08.165-.1663l-.005-11.5925v-.0125c0-.0838.1012-.17.1337-.17l-1.5212-.006c.085 0 .1562.1038.1562.1888l.008 11.5912M33.695 28.5812c.085 0 .1537.0637.1537.1488l-.009.7675a.1537.1537 0 01-.1537.1537l-5.25.001c-.085 0-.1575.0725-.1575.1588l-.005 10.55c0 .0837.0675.1512.1525.1512l5.2725.008c.085 0 .1537.0613.1537.1463l-.003.7837a.1537.1537 0 01-.1537.1538l-6.4775-.006c-.085 0-.1613-.0625-.1613-.1475l-.001-12.7163c0-.0863.0637-.1525.1488-.1525h6.49" fill="#224a3d"/><path d="M28.1187 34.475v1.07l5.5813.003c.085 0 .1537-.0738.1537-.1588l-.004-.7487c0-.085-.0688-.1588-.1537-.1588l-5.5775-.006m39.669-5.8945c.085 0 .1537.0637.1537.1488l.001.7675c0 .085-.0788.1537-.1637.1537l-5.2513.001c-.085 0-.1675.0725-.1675.1588l.006 10.55a.151.151 0 00.1513.1512l5.2737.008c.085 0 .1538.0613.1538.1463l-.002.7837c0 .085-.07.1538-.1538.1538l-6.4775-.006c-.085 0-.1612-.0625-.1612-.1475l-.003-12.7163c0-.0863.065-.1525.15-.1525h6.49" fill="#224a3d"/><path d="M62.2112 34.475v1.07l5.58.003c.085 0 .1538-.0738.1538-.1588l-.002-.7487c0-.085-.07-.1588-.1538-.1588l-5.5775-.006m40.4445-5.8945c.085 0 .1538.0637.1538.1488l-.009.7675c0 .085-.07.1537-.1538.1537l-5.2512.001c-.085 0-.1575.0725-.1575.1588l-.005 10.55a.152.152 0 00.1525.1512l5.2737.008c.085 0 .1538.0613.1538.1463l-.002.7837c0 .085-.07.1538-.155.1538l-6.4775-.006c-.0838 0-.1613-.0625-.1613-.1475l-.001-12.7163c0-.0863.065-.1525.15-.1525h6.49" fill="#224a3d"/><path d="M97.08 34.475v1.07l5.58.003c.085 0 .1537-.0738.1537-.1588l-.002-.7487c0-.085-.07-.1588-.155-.1588l-5.5762-.006M29.2037 27.975c.4375 0 .7913-.3538.7913-.79a.7906.7906 0 00-.7913-.7913c-.4362 0-.79.3538-.79.7913a.79.79 0 00.79.79m2.5663 0c.4375 0 .7912-.3538.7912-.79a.7906.7906 0 00-.7912-.7913c-.4363 0-.79.3538-.79.7913a.79.79 0 00.79.79m18.5312 6.5037h7.9138v1.0663H50.3l.001-1.0663M122.68 41.6a.151.151 0 01-.1513-.1513l.001-6.9725 1.2238-.002.005 6.9675c0 .085-.0663.1575-.15.1575l-.9288.001" fill="#224a3d"/><path d="M123.5075 34.305L119.28 28.89l-1.5563-.003 4.8175 6.1712.9663-.7537M70.92 30.6212l-.004 10.8313c0 .085-.0688.1475-.1538.1475l-.92-.005c-.085 0-.1525-.065-.1525-.15V28.7475c0-.085.0675-.16.1425-.17l1.085.002 8.6813 11.1712.006-11.015c0-.085.0388-.1537.1425-.1537h.9562c.075 0 .105.0825.105.1675l-.005 12.6737c0 .085-.085.1713-.17.1713l-.8975.005c-.0588 0-.2637-.0312-.2637-.115l-8.5525-10.8638m12.873.0005l-.004 10.8313c0 .085-.0688.1475-.1525.1475l-.9213-.005c-.085 0-.1525-.065-.1525-.15V28.7475c0-.085.0675-.16.1425-.17l1.085.002 8.6813 11.1712.005-11.015c0-.085.0388-.1537.1437-.1537h.9563c.075 0 .105.0825.105.1675l-.005 12.6737c0 .085-.0838.1713-.17.1713l-.8975.005c-.06 0-.2638-.0312-.2638-.115l-8.5525-10.8638" fill="#224a3d"/><g clip-path="url(#b)" transform="matrix(1.25 0 0 -1.25 -605.8775 330.6338)" fill="#224a3d"><path d="M570.2188 230.9063c-.8516-.012-1.7913.2881-2.6563 1l.625.75c1.4161-1.1654 2.777-.8858 3.5-.1875.3615.349.567.805.5313 1.2812-.0358.4763-.3131 1.0031-1 1.5313l-2.4063 1.6875h-.0312c-.7378.582-1.095 1.3368-1.0938 2.0625.001.7256.349 1.392.875 1.875 1.052.9658 2.9337 1.1956 4.4688-.2188l-.6875-.7188c-1.224 1.1277-2.4255.861-3.125.2188-.3497-.321-.5618-.7394-.5625-1.1563-.0007-.4168.2013-.8483.75-1.2812l2.4063-1.6875c.855-.6574 1.3159-1.463 1.375-2.25.059-.787-.2673-1.5359-.8125-2.0625-.5453-.5266-1.3048-.8317-2.1563-.8438zm5.9687 0c-.8517-.012-1.791.2882-2.6563 1l.625.75c1.4167-1.1655 2.7771-.8858 3.5-.1875.3615.349.5671.805.5313 1.2812-.0358.4762-.3128 1.003-1 1.5313l-2.4063 1.6875h-.0312c-.7378.582-1.095 1.3368-1.0938 2.0625.001.7256.349 1.392.875 1.875 1.052.9658 2.9337 1.1956 4.4688-.2188l-.6563-.7188c-1.2239 1.1277-2.4567.861-3.1562.2188-.3497-.321-.5305-.7394-.5313-1.1563-.0007-.4168.17-.8483.7188-1.2812l2.4063-1.6875h.0312c.8552-.6573 1.2845-1.463 1.3437-2.25.0592-.787-.2672-1.5359-.8125-2.0625s-1.3046-.8317-2.1563-.8438z"/></g><path d="M122.805 34.305l4.2287-5.415 1.555-.003-4.8187 6.1712-.965-.7537m9.3525 5.2717a.1545.1545 0 00-.1538.1538c0 .085.07.1537.1538.1537v-.3075m3.6912.3075a.1537.1537 0 100-.3075v.3075m-2.0037 2.18c0 .085.0688.155.1537.155.0838 0 .1525-.07.1525-.155h-.3062m.3062-4.485a.1531.1531 0 00-.3062 0h.3062" fill="#224a3d"/><path d="M132.04 39.6425l1.8512-2.17h.2138l1.87 2.17v.165l-1.87 2.3638h-.2138l-1.8512-2.3538v-.175m11.7337-10.9063c0-.085-.07-.1537-.155-.1537l-.9137-.002c-.085 0-.15.0675-.15.1525l.001 12.7163c0 .0837.0775.1474.1625.1474l6.4762.006c.085 0 .155-.0686.155-.1537l.002-.785c0-.0837-.0688-.145-.1537-.145l-5.2738.002c-.0838 0-.1512-.0775-.1512-.1625l.004-11.59m33.4567 12.6877c0 .0837-.0687.15-.1537.15l-.9113-.006a.1533.1533 0 01-.1525-.1537" fill="#224a3d"/><path d="M176.0125 41.4525l.001-12.72c0-.085.0712-.15.155-.15h.9112a.156.156 0 01.1563.155l.001 12.7238m38.7505-.0051c0 .0837-.07.15-.1538.15l-.9112-.006a.1525.1525 0 01-.1525-.1537" fill="#224a3d"/><path d="M214.7662 41.4525l.001-12.72c0-.085.07-.15.155-.15h.9113c.0838 0 .1562.0687.1562.155l.001 12.7238m-51.762-4.6926v-8.1875l-1.225-.001v8.1888h1.225m9.3213-.0003l-.01-8.1875-1.215.002v8.185h1.225m-1.2275.003c0 2.235-1.8138 4.0475-4.0488 4.0475s-4.0475-1.8125-4.0475-4.0475h-1.2237c0 2.9113 2.36 5.2725 5.2712 5.2725 2.9125 0 5.2725-2.3612 5.2725-5.2725h-1.2237m30.6587-.0025v-8.1875l-1.225-.001v8.1888h1.225m9.3213-.0003l-.01-8.1875-1.215.002v8.185h1.225m-1.2275.003c0 2.235-1.8125 4.0475-4.0488 4.0475-2.235 0-4.0475-1.8125-4.0475-4.0475h-1.2237c0 2.9113 2.36 5.2725 5.2712 5.2725 2.9125 0 5.2725-2.3612 5.2725-5.2725h-1.2237" fill="#224a3d"/><g clip-path="url(#c)" transform="matrix(1.25 0 0 -1.25 -605.8775 330.6338)" fill="#224a3d"><path d="M630.7813 230.9688c-.8517-.012-1.7911.2882-2.6563 1l.625.7812c1.4166-1.1655 2.7771-.9168 3.5-.2188.3614.349.567.805.5313 1.2813-.035.4652-.3169 1.0147-.9688 1.5313h-.0312c-.01.007.01.0238 0 .0312l-2.4063 1.6562v.0312h-.0312c-.7377.582-1.095 1.3368-1.0937 2.0625.001.7257.349 1.392.875 1.875 1.052.9658 2.9337 1.1644 4.4688-.25l-.6563-.7187c-1.224 1.1276-2.4568.8921-3.1563.25-.3497-.3211-.5305-.7395-.5312-1.1563-.0007-.405.1747-.8602.6875-1.2812l.0312-.0312 2.4063-1.6563.0312-.0312c.8552-.6576 1.2845-1.4318 1.3437-2.2188.0592-.787-.2672-1.5359-.8125-2.0625-.5453-.5265-1.3046-.863-2.1563-.875z"/></g><path d="M195.825 39.9112l4.3112-11.3325 1.275.004-5.04 13.0213h-1.135l-5.04-13.0213 1.275-.004 4.3538 11.3325m31.1425-11.1825c0-.085-.0687-.1487-.1538-.1487l-9.61-.005c-.085 0-.14.0787-.14.1637v.765c0 .1113.0663.155.15.155h9.6c.085 0 .1538-.07.1538-.155v-.775" fill="#224a3d"/><path d="M221.275 41.4425c0 .085.0813.16.14.16h.92c.085 0 .165-.0812.165-.1663l-.005-11.5937v-.0113c0-.085.1-.1713.1337-.1713l-1.5212-.005c.0863 0 .1637.1038.1637.1888l.004 11.5987m15.7973-12.7137c0-.085-.0687-.1487-.1538-.1487l-9.61-.005c-.085 0-.1412.0787-.1412.1637l.002.765c0 .1113.0625.155.1487.155h9.6c.085 0 .1538-.07.1538-.155v-.775" fill="#224a3d"/><path d="M231.3787 41.4425c0 .085.0825.16.1413.16h.92c.085 0 .165-.0812.165-.1663l-.006-11.5937v-.0113c0-.085.1012-.1713.135-.1713l-1.5213-.005c.085 0 .1638.1038.1638.1888l.003 11.5987M251.955 30.625l-.004 10.8313c0 .0861-.0688.1487-.1525.1487l-.9213-.005c-.085 0-.1525-.065-.1525-.15V28.7512c0-.085.0675-.16.1438-.1687l1.0837.002 8.6813 11.1712.006-11.0162c0-.085.0387-.1525.1425-.1525h.9562c.0763 0 .105.0812.105.1662l-.005 12.675c0 .085-.0838.1713-.1687.1713l-.8988.004c-.0588 0-.2637-.03-.2637-.115l-8.5525-10.8638" fill="#224a3d"/><g clip-path="url(#d)" transform="matrix(1.25 0 0 -1.25 -605.8775 330.6338)"><path d="M484.702 246.572H694.17" fill="none" stroke="#8d7c71" stroke-width="1.333"/></g><path d="M19.1487 29.6337c3.095.2263 5.3313 2.545 5.3313 5.4075 0 2.9725-2.41 5.3825-5.3838 5.3825-2.9712 0-5.3812-2.41-5.3812-5.3825 0-2.8875 2.2737-5.2212 5.4187-5.4112v-1.2963c-3.86.19-6.7487 2.9563-6.715 6.7075.035 3.6875 2.99 6.6775 6.6775 6.6775 3.6888 0 6.6788-2.99 6.6788-6.6775 0-3.6-2.8488-6.5125-6.69-6.7075l.0638 1.3m136.2474.1238c3.095.225 5.3313 2.545 5.3313 5.4075 0 2.9725-2.41 5.3825-5.3825 5.3825s-5.3825-2.41-5.3825-5.3825c0-2.8875 2.2725-5.2213 5.4175-5.4113l.002-1.2962c-3.8613.19-6.7488 2.9562-6.715 6.7075.0337 3.6875 2.9887 6.6775 6.6775 6.6775 3.6875 0 6.6775-2.99 6.6775-6.6775 0-3.6-2.8488-6.5125-6.6888-6.7075l.0625 1.3m87.3168-.0213c3.0962.225 5.3312 2.545 5.3312 5.4075 0 2.9725-2.4087 5.3825-5.3825 5.3825-2.9725 0-5.3812-2.41-5.3812-5.3825 0-2.8875 2.2725-5.2225 5.4175-5.4112l.001-1.2963c-3.8613.19-6.7488 2.9563-6.7138 6.7075.0325 3.6875 2.9888 6.6763 6.6763 6.6763 3.6875 0 6.6775-2.9888 6.6775-6.6763 0-3.6-2.8488-6.5137-6.6888-6.7075l.0625 1.3" fill="#224a3d"/></svg>