<svg xmlns="http://www.w3.org/2000/svg" height="800" width="1200" viewBox="-46.5 -78.1365 403 468.819"><switch transform="translate(-234.49 -104.49) scale(.62832)"><g><path fill="#2e2a25" d="M650.7 611.3c11.7-7 30-15.1 49-18.7 15.6-3 43.3-15.6 55.9-25.7 19.8-15.9 24.6-20.4 35-31.5 8.4-9 19.3-22.4 27.5-37.1 17.1-30.5 13.2-44.3 11.9-43.8-32.2 11.4-36.2 13-57.9 19.9-11.3 3.6-21.3 6.6-35.1 10.3-1.1.3-2.5-5.1-6.1-9.9-4.6-6.1-8.4-8.4-8.4-8.4s19.4-22 26-31.8c9.4-13.8 30.9-44.9 30.9-44.9-.1.1 31.7-19.9 54-48 20.2-25.4 24.7-34.8 31.2-63.8 5.1-22.3 0-48.5-11.4-66.3-9.7-15-15.4-21.2-34.5-33.2-12.1-7.6-25.5-12.1-25.5-12.1-5.8 10.5-21.3 36.4-30.4 47.4-13 15.7-23.2 23.7-34.3 33.4-7.6 6.8-25.1 20.3-38.7 29.8-9.5 6.6-28.3 18.6-31.1 20.3-11.2 7-25 13.8-25 13.8s-5 20.3-8.5 31.6c-6.6 21.6-17.4 40.1-17.4 40.1s-4.8-29.9-15-48.5c-10.8-19.8-25.4-30.9-26.2-34.8-7.5-42.5-18.2-48.9-28.2-60.3-10.7-12.4-25.3-24.1-42.7-31.2-19-7.9-45.2-15.5-76.5-8.9-21.6 4.5-46 14.3-46 14.3s12.5 14.3 21 26.4c15.2 21.7 26.3 39.8 32.2 54.4 6.4 15.6 13.8 36.5 16.8 49.7 3.2 13.9 6 33.5 6 33.5s20.1 8.8 28.7 16.7c7 6.4 15 13.8 20.4 26.9.2.6-17.9 7.6-29.9 16.2-16.3 11.6-23.1 18.9-26.1 31.4 0 0-20.1 16.1-18.7 33.9.5 7.4 6.2 14.9 8.9 17.9 4.3 4.6 13.7 10.8 24.5 8.4 11.7-2.6 25.7-18.6 48.4-10.2 10.2 3.7 15.3 17.1 20.4 25.7 5.1 8.8 9.5 14.4 11.3 21.5 2.4 9-2.2 16.5-7 21.9-5.1 5.7-21.7 13.9-26.6 28.4-4 11.9-.8 26 11.5 32.9 11.4 6.3 28 2 28 2s14.5 15.9 34.2 12.3c17.5-3.2 37.2-21.4 41.3-25.7 11.1-11.2 23.2-20.8 32.2-26.2"/><g fill="#ffd100"><path d="M783.7 300c82.8-40.9 63.2-66.3 63.2-66.3-47.1 47.9-73.3 51.7-73.3 51.7 79.9-53.7 52.7-77.5 52.7-77.5-20 36.1-66.1 65.3-66.1 65.3 66.6-67.7 40.4-83.1 40.4-83.1-34.4 68.4-151.1 133.1-151.1 133.1-17.1 93.5-85.2 135.2-85.2 135.2l10.7-16.3c-1.7 0-25.3-.5-25.3-.5l1.9-5.9c-10.3.1-43.6 6-43.6 6l.9-6.7c-21.3 8-40 22.9-48.8 31.8-8.8 8.9-2.6 11.1-2.6 11.1-6.6 4.8-15.3 14.1-15.3 14.1-7.6 11.6-.1 17.6 4.8 22 5.1 4.6 3.7-.8 3.7-.8-6.2-8.3 2.8-12.8 2.8-12.8 9.8-2.5 13.4-7 13.4-7l.3 4.7c-1 1-2.1 2.2-3 3.3-2.2 2.4-4.3 4.8-6.3 7.4-.8.9-1.5 1.8-2.2 2.7-.2.3.5.9.8.9 1-.2 2-.5 2.9-.8 2.1-.8 4.1-1.6 6.1-2.6 3.7-1.7 7.4-3.7 10.8-6 11-3 26.5-2.2 26.5-2.2 19.1-.1 32 23 32 23 18 41.9 51.3 46.3 51.3 46.3-.7-2.5-6-11.7-6-11.7 42.9 38-15 60.8-15 60.8-7.9 12.7-9.1 21.6-9.1 21.6 2.9 10.6 21.1 7.4 21.1 7.4-14.8-5.7-4-18.9-4-18.9-1.9 22.7 21.9 8.2 21.9 8.2-19.7 2.7-7.3-15.1-7.3-15.1-2.1 18.8 20.3 2.3 20.3 2.3-21 2.3-6-11.7-6-11.7 5.8-6 34.1-14.2 34.1-14.2-6.8-1.6-13.2-6.2-13.2-6.2 13.9-2.2 34.9-8.3 34.9-8.3-13.6-4.5-19.1-11.2-19.1-11.2 12.2-.1 26.5-6.9 26.5-6.9 32.8 14.9 46.1 2.2 46.1 2.2-7.3.1-32.4-11.8-32.4-11.8 43.2 18.6 60.9-.7 60.9-.7-15.5.2-46.2-7-46.2-7 49.7 9 69.8-11.8 69.8-11.8-27.6.2-61.5.8-61.5.8 74.2-3 85.4-26.5 85.4-26.5-25.6 6.6-81.7 15.1-81.7 15.1 95.8-16.9 103.2-49 103.2-49-57.2 28.1-130.6 40.5-130.6 40.5l-23.2-4.1c-58.6 17.7-66.7-6.5-66.7-6.5 69.9 49.1 169.2-120.2 169.2-120.2-28.8 9.7-34.5 6.9-34.5 6.9 71.7-24.3 73.4-38.5 73.4-38.5-34.4 9.3-42 6.5-42 6.5 55.7-9.5 65.9-32.7 65.9-32.7-39.1 13.6-55.2 10.9-55.2 10.9 78.3-17.7 72-38 72-38-36.2 16.4-58 17-58 17 80.7-25.3 69.1-49.3 69.1-49.3-33.9 25.5-64.5 30-64.5 30M471.4 485.2c-.9.3-1.9.4-2.9.5-1.7.3-3.3.6-5 .9-2.1.4-4.3.9-6.4 1.5-1.2.3-2.4.6-3.5 1-.3.1-.8.4-1 0v-.1c-.1-.2.1-.6.2-.7.5-.8 1.2-1.5 2-2.1 1-.9 2-1.7 3-2.6.9-.8 1.8-1.5 2.8-2.3.2-.2 1.2-.8 1.2-1.1 0 0-.1 3.1 7.7 4.1.5.1 1 .1 1.6.2.2 0 .6.1.8.2.1.4-.2.4-.5.5m-.3-7.8c-3.2 0-6.2-3.7-6.2-3.7l11.6-6.7zm48.1.6s-4.2 3.3-4.3 3.3l-17.9-4.9-.1-.1.1-.1 22.1 1.6.1.1zm15.3-12.3l-6.2 5.3-31.1-4.4-.1-.1.1-.1 37.2-.9h.1zm12.9-15.5l-7.2 6.4-40.5-1.5-.1-.1v-.1l47.7-4.9.1.1zm51.8 39.4c-26.7 3.3-35.6-3.5-35.7-3.6l.1-.1c52.3.6 93.6-12.3 94-12.4h.1s0 .2-.1.2m0 0c-25.3 9.7-44.3 14.3-58.4 16m87.8-52.1c-79.5 46.6-110.4 35-110.7 34.9v-.1l.1-.1c64.2-11.5 110.2-34.6 110.6-34.8h.1v.1z"/><path d="M545.4 612.9c-1.9 17 18.3 2.2 18.3 2.2-1.3.9-7.2.4-8.6-.7-1.8-1.5-1.1-2.1-1.1-4.1 0-5 2.9-7.9 6.9-10.5 7.7-5 19.8-9.6 29.1-9.2 3-8.4-.1-10.8-2-15.4-13.4-.4-22.1-6.4-33.3-17.4 3.9 6 3.4 13.6 1.1 20.1-2.1 5.6-5.4 12.8-9.3 17.3-3.9 4.6-8.9 8.2-14 11.2-1.5.8-6.6 2.3-7.5 3.7-7.1 11.5-8.2 19.4-8.2 19.4 2.7 9.6 19.1 6.7 19.1 6.7-13.3-5.2-3.6-17.1-3.6-17.1-1.7 20.6 19.8 7.4 19.8 7.4-17.9 2.4-6.7-13.6-6.7-13.6m-22-177.7s33.2-6 47.6-6.1c0 0-7.3-8-34.7-13.4 0 0 10-4.5 26.1-4.7 0 0-6.8-6-32.2-12.6 0 0 10.4-4.1 22.1-4.2 0 0-11.3-7.1-29.8-10.2 0 0 9.2-3.3 20.9-3.4 0 0-13.3-6.7-29-9 0 0 10-3.7 19.7-3.8 0 0-17.4-7.9-29.1-7.8 0 0 12.7-3.7 16.4-3.8 0 0-17.7-6.7-26.5-6.6 0 0 10.9-2.9 13.7-2.9 0 0-11.4-4.2-19.8-5.4 0 0 43.4-19.3 89.2 96.1 0 0 37.9-63.7-24.3-124.8l-6.8 9.7s7.7-41.9-21.1-70.2c0 0 8.4 35.7 4.4 43 0 0-4.9-51.8-26.7-65.3 0 0 9.1 28.6 6.4 39.4 0 0-8-43.8-28.6-50.8 0 0 11.9 28.1 8.8 40.2 0 0-10.8-44.2-32.5-45.6 0 0 14.8 31.9 12.8 39.7 0 0-16-39.6-40.9-41.5 0 0 22 36.6 20.5 42.5 0 0-27.7-44.8-48.7-33.8 0 0 44.7 40 65.4 143.7-.2-.1 41.7 17.3 56.7 71.6m175 52.4c0 6.8 5.4 11.9 12 11.9 6.5 0 11.9-5.1 11.9-11.9 0-6.7-5.5-11.8-11.9-11.8-6.6-.1-12 5.1-12 11.8m21.7 0c0 5.8-4.3 10.2-9.7 10.2-5.6 0-9.9-4.4-9.9-10.2 0-5.7 4.3-10.1 9.9-10.1 5.4 0 9.7 4.4 9.7 10.1"/><path d="M705.7 494.5h2.2v-6h2.3l3.8 6h2.3l-4-6.1c2.1-.2 3.6-1.3 3.6-3.8 0-2.7-1.5-4-4.8-4h-5.3v13.9zm2.2-12.1h2.9c1.4 0 3 .3 3 2.1 0 2.2-1.8 2.3-3.7 2.3h-2.2z"/></g></g></switch></svg>