<svg xmlns="http://www.w3.org/2000/svg" height="800" width="1200" version="1.0" viewBox="-60 -14.64565 520 87.8739"><defs><clipPath clipPathUnits="userSpaceOnUse" id="a"><path d="M1961.75 95.9766H2970v6884.3H1961.75z"/></clipPath></defs><g transform="matrix(0 .0581 .0581 0 -5.5766 -113.984)" clip-path="url(#a)"><path d="M2882.84 6980.28c48.14 0 87.16-39.01 87.16-87.15V183.066c0-48.14-39.02-87.1558-87.16-87.1558H2048.9c-48.11 0-87.15 39.0158-87.15 87.1558V6893.13c0 48.14 39.04 87.15 87.15 87.15h833.94" fill="#c31e24"/><path d="M2253.47 612.133c-18.41-36.352-29.8-77.879-29.8-123.692 0-45.839 11.39-87.367 29.8-122.828h412.37c18.47 35.461 29.86 76.989 29.86 122.828 0 25.082-3.52 48.45-9.65 70.067l-80.69-78.731c-9.67-9.523-20.24-13.843-30.71-13.843-24.56 0-47.38 22.507-47.38 46.703 0 10.41 4.38 21.617 14.89 32.031l69.33 67.465zm595.81 123.687c0-11.269-4.41-22.539-14.94-32.89l-76.32-74.383c17.52-42.356 29-89.086 29-140.106 0-83.875-30.74-155.687-71.99-212.769h-510.68c-41.25 57.082-72 128.894-72 212.769 0 83.024 29.86 156.52 72 213.629h499.25l67.56 65.719c9.68 9.555 20.24 12.984 30.75 12.984 24.52 0 47.37-20.761 47.37-44.953m-59.5 362.49c0-84.22-30.38-156.244-71.14-213.537h-540.5c-26.07 0-45.14 22.598-45.14 45.106 0 22.57 16.5 45.172 45.14 45.172h491.9c18.22 35.579 29.52 77.229 29.52 123.259 0 45.99-11.3 87.64-29.52 124.12h-491.9c-29.5 0-45.14 22.57-45.14 45.14 0 22.56 14.79 45.13 45.14 45.13h540.5c41.65-57.26 71.14-131.06 71.14-214.39m-7.72 652.62v-264.56c0-30.47-22.66-45.26-45.32-45.26s-45.36 16.5-45.36 45.26v87h-458.89v-77.48c0-29.55-22.72-45.19-45.38-45.19-22.69 0-45.36 15.64-45.36 45.19v245.48c0 30.44 22.67 45.26 45.36 45.26 22.66 0 45.38-14.82 45.38-45.26v-77.44h458.89v87c0 33.1 22.7 45.26 45.36 45.26s44.46-13.9 45.32-45.26m5.3 590.39c0-10.51-3.49-21.9-13.97-32.43l-294.07-295.12h262.65c28.82 0 45.39-22.79 45.39-45.57 0-22.75-13.97-45.51-45.39-45.51h-563.71c-31.42 0-45.38 22.76-45.38 45.51 0 22.78 16.59 45.57 45.38 45.57h232.15l-263.57 264.46c-9.62 9.68-13.96 20.15-13.96 30.66 0 25.44 21.83 48.2 46.24 48.2 10.47 0 21.83-3.5 32.27-14.03l233.02-233.87 264.43 264.49c9.59 9.65 20.09 14.06 30.53 14.06 24.44 0 47.13-21.9 47.99-46.42m1.75 356.91c0-83.32-29.9-157.07-72.13-214.33h-96.73c-29.89 0-45.75 22.57-45.75 45.08 0 22.63 15.86 45.13 45.75 45.13h47.46c18.47 36.48 29.95 78.12 29.95 124.12s-11.48 87.65-29.95 123.23h-125.77l-102.03-323.69h-234.92c-41.34 53.84-72.15 121.48-72.15 200.46 0 78.09 29.92 147.55 72.15 201.32h90.62c30.77 0 45.75-22.57 45.75-45.14s-14.98-45.08-45.75-45.08h-41.34c-18.5-33.01-29.92-70.31-29.92-111.1 0-40.79 11.42-78.09 29.92-110.24h117.87l102.09 323.69h242.75c41.35-57.27 72.13-129.29 72.13-213.45m-7.05 641.59v-263.54c0-30.41-22.75-45.14-45.42-45.14-22.69 0-45.41 16.45-45.41 45.14v86.66h-459.35v-77.17c0-29.46-22.69-45.07-45.38-45.07-22.7 0-45.39 15.61-45.39 45.07v244.5c0 30.41 22.69 45.11 45.39 45.11 22.69 0 45.38-14.7 45.38-45.11v-77.14h459.35v86.69c0 32.98 22.72 45.08 45.41 45.08 22.67 0 44.56-13.87 45.42-45.08m-1.65 514.14v-342.19h-603.07c-29.71 0-45.48 22.76-45.48 45.51 0 22.76 15.77 45.54 45.48 45.54h512.14v251.14c0 30.56 22.76 45.45 45.45 45.45 22.72 0 45.48-14.89 45.48-45.45m-590.33 489.55l556.37-148.34c26.15-6.89 33.99-16.45 33.99-43.3v-62.48c0-26.85-7.84-36.41-33.99-43.3l-556.37-148.3c-5.24-1.72-9.59-1.72-13.94-1.72-27.03 0-42.75 23.39-42.75 46.79 0 18.25 10.48 35.62 34.03 41.68l510.12 136.09-510.12 136.18c-23.55 6.03-34.03 24.26-34.03 42.48 0 22.51 15.72 45.93 42.75 45.93 4.35 0 8.7 0 13.94-1.71m591.24 452.52v-329.35h-639.35v301.48c0 31.33 22.63 45.27 45.29 45.27s45.26-16.51 45.26-45.27v-210.84h170.76v149.81c0 29.67 22.63 45.29 45.26 45.29 22.69 0 45.32-14.76 45.32-45.29v-149.81h196.85v238.71c0 27.87 22.66 45.26 45.29 45.26 22.7 0 45.32-15.68 45.32-45.26m-521.94 485.42c-17.43-34.7-27.93-71.24-27.93-118.12v-117.2h239.05v117.2c0 46.88-11.36 83.42-28.82 118.12zm528.59 61.64c0-10.41-4.38-21.71-13.96-31.3L2561.2 5100.8v-54.67h181.45c30.5 0 45.32-22.63 45.32-45.17 0-22.57-14.82-45.2-45.32-45.2h-601.88v207.57c0 85.13 26.13 152.81 67.16 208.42h286.09c29.64-41.71 50.59-92.91 61.06-148.52l154.4 152.84c9.59 9.59 20.06 13.93 30.5 13.93 27.93 0 47.99-21.74 47.99-46.91m1.9 290c0-40.11-33.84-68.63-66.18-68.9h-263.67c.07 50.44-24.43 95.39-36.22 111.84-74.97 104.27-221.07 190.97-268.51 302.13-13.97 32.55-36.72 95.66-15.74 175.47l95.51 95.36s-23.67-49.82-23.67-123.65c0-82.72 68.69-242.88 248.2-242.88 144.91 0 246.46 99.1 246.46 261.65v575.41l83.82 83.54V5633.09" fill="#fff"/><path d="M2476.93 6400.61v-63.24l45.69-48.14c8.42-6.61 8.42-17.73-4.04-17.48h-78.65c-10.41 0-12.22-9.44-2.54-19.08l39.51-46.55v-65.78c.21-8.05-6.65-11.24-12.71-5.24 0 0-110.89 116.71-113.74 119.5-8.05 8.08-8.11 25.57 0 33.65l113.1 114.23c6.7 6.7 13.25 3.12 13.38-1.87zm-167.23-77.32c-28.76-25.09-28.79-76.53 0-105.32 11.72-11.76 259.01-252.74 259.01-252.74 56.93 24.44 86.14 105.81 86.14 166.6v536.21l-345.15-344.75" fill="#fff"/></g></svg>